<?xml version="1.0" encoding="UTF-8"?>
<svg id="Layer_2" data-name="Layer 2" xmlns="http://www.w3.org/2000/svg" viewBox="0 0 1011.46 154.21">
  <defs>
    <style>
      .cls-1 {
        fill: #1942f5;
      }

      .cls-2 {
        fill: #fff;
      }
    </style>
  </defs>
  <g id="Calque_1" data-name="Calque 1">
    <g>
      <path class="cls-1" d="M189.63,113.83v40.36h-40.36v-38.15c0-1.21-.98-2.2-2.2-2.2h-35.95c-1.21,0-2.2.98-2.2,2.2v38.16h-25.34c-13.66,0-26.75-5.43-36.4-15.08L15.08,107C5.41,97.34,0,84.26,0,70.6V0h40.34v113.83h66.37c1.21,0,2.2-.98,2.2-2.2V0h40.36v111.63c0,1.21.98,2.2,2.2,2.2h38.17Z"/>
      <g>
        <g>
          <path class="cls-2" d="M345.34,85.18c0,27.6-14.49,44.07-38.75,44.07s-38.75-16.48-38.75-44.07V7.86h-17.69v77.92c0,18.44,5.37,33.84,15.52,44.53,9.97,10.5,24.12,16.05,40.92,16.05,34.81,0,56.44-23.21,56.44-60.58V7.86h-17.69v77.33Z"/>
          <path class="cls-2" d="M429.15,44.51c-12.48,0-23.05,4.44-29.88,12.52v-10.55h-16.7v97.9h17.3v-54.66c0-17.28,11.06-28.9,27.51-28.9s25.94,10.8,25.94,28.9v54.66h17.3v-56.04c0-26.21-16.66-43.82-41.46-43.82Z"/>
          <path class="cls-2" d="M537.14,60.82c14.44,0,26.2,8.99,30.68,23.46l.06.19h18.07l-.07-.33c-4.83-23.33-24.87-39.63-48.75-39.63-28.22,0-50.33,22.37-50.33,50.92s22.11,50.92,50.33,50.92c24.07,0,44.12-16.3,48.75-39.63l.06-.33h-18.07l-.06.19c-4.55,14.47-16.31,23.46-30.68,23.46-18.52,0-33.03-15.2-33.03-34.61s14.51-34.61,33.03-34.61Z"/>
          <path class="cls-2" d="M650.06,44.51c-12.3,0-22.66,4.43-29.29,12.51V7.86h-17.3v136.52h17.3v-54.66c0-17.28,11.06-28.9,27.52-28.9s25.94,10.8,25.94,28.9v54.66h17.29v-56.04c0-26.21-16.66-43.82-41.46-43.82Z"/>
          <path class="cls-2" d="M781.23,100.75c0,18.06-10.09,29.29-26.33,29.29s-26.33-11.22-26.33-29.29v-54.27h-17.29v55.06c0,13.39,4.2,24.71,12.15,32.73,7.83,7.9,18.71,12.08,31.48,12.08s23.65-4.18,31.48-12.08c7.95-8.03,12.15-19.35,12.15-32.73v-55.06h-17.3v54.27Z"/>
          <path class="cls-2" d="M834.18,59.87v-13.39h-16.71v97.9h17.3v-53.88c0-12.28,4.74-26.92,27.32-26.92h8.15v-17.1h-6.58c-13.49,0-23.15,4.38-29.49,13.39Z"/>
          <path class="cls-2" d="M933.23,44.51c-12.48,0-23.05,4.44-29.88,12.52v-10.55h-16.71v97.9h17.3v-54.66c0-17.28,11.06-28.9,27.52-28.9s25.94,10.8,25.94,28.9v54.66h17.29v-56.04c0-26.21-16.66-43.82-41.46-43.82Z"/>
        </g>
        <rect class="cls-2" x="992.21" y="125.13" width="19.25" height="19.25"/>
      </g>
    </g>
  </g>
</svg>